<?xml version="1.0" standalone="no"?>
<!DOCTYPE svg PUBLIC "-//W3C//DTD SVG 20010904//EN"
 "http://www.w3.org/TR/2001/REC-SVG-20010904/DTD/svg10.dtd">
<svg version="1.0" xmlns="http://www.w3.org/2000/svg"
 width="180.000000pt" height="180.000000pt" viewBox="0 0 180.000000 180.000000"
 preserveAspectRatio="xMidYMid meet">
<metadata>
Created by potrace 1.11, written by Peter Selinger 2001-2013
</metadata>
<g transform="translate(0.000000,180.000000) scale(0.100000,-0.100000)"
fill="#000000" stroke="none">
<path d="M795 1762 c-3 -4 -10 -7 -13 -8 -4 0 -29 -4 -57 -9 -27 -5 -53 -8
-57 -7 -5 1 -8 -2 -8 -6 0 -4 -9 -8 -20 -9 -34 -3 -171 -72 -239 -121 -85 -60
-198 -177 -224 -231 -4 -9 -16 -29 -27 -46 -11 -16 -22 -37 -26 -45 -3 -8 -9
-24 -14 -35 -11 -26 -23 -58 -25 -67 -2 -5 -3 -9 -5 -10 -2 -3 -4 -11 -19 -73
-10 -38 -22 -126 -22 -152 1 -34 0 -64 -1 -75 -3 -33 24 -181 43 -233 23 -63
51 -127 59 -135 3 -3 16 -26 30 -52 13 -27 28 -48 32 -48 5 0 8 -5 8 -10 0
-18 90 -114 146 -156 21 -16 41 -31 44 -34 14 -14 113 -70 144 -81 20 -7 36
-17 36 -23 0 -5 3 -7 6 -3 4 3 23 0 43 -8 45 -17 93 -29 105 -26 4 1 13 -2 20
-6 6 -5 28 -8 49 -8 20 1 37 -3 37 -7 0 -5 8 -4 18 1 10 6 24 6 32 1 8 -5 18
-6 22 -4 5 3 34 7 66 9 31 3 68 7 82 10 14 4 39 9 55 12 17 2 36 10 43 15 6 6
12 8 12 5 0 -3 28 6 62 20 67 27 171 91 227 139 62 54 151 154 151 172 0 6 4
12 9 12 5 0 13 10 17 23 4 12 10 24 13 27 10 7 61 118 64 138 1 9 6 22 9 28 4
6 10 26 13 45 3 19 8 41 10 49 3 8 7 39 10 69 3 29 8 57 10 62 3 4 1 10 -5 14
-7 4 -7 12 0 24 5 10 7 21 4 24 -3 3 -8 31 -10 63 -7 103 -82 324 -118 346 -6
4 -7 8 -3 8 27 0 -177 224 -215 236 -10 3 -18 9 -18 14 0 9 -91 66 -102 63 -3
-2 -12 4 -18 12 -7 8 -20 15 -30 15 -9 0 -20 3 -24 8 -4 4 -11 7 -14 8 -4 0
-20 6 -35 12 -16 7 -37 12 -47 12 -10 0 -21 4 -24 8 -2 4 -17 9 -33 10 -29 3
-68 9 -68 12 0 5 -148 4 -158 -2 -6 -3 -18 -3 -28 2 -9 5 -20 6 -24 2z"/>
</g>
</svg>
